<svg width="156" height="38" viewBox="0 0 156 38" fill="none" xmlns="http://www.w3.org/2000/svg">
<path d="M3 16.5C1.61929 16.5 0.5 17.6193 0.5 19C0.5 20.3807 1.61929 21.5 3 21.5V16.5ZM154.768 20.7678C155.744 19.7915 155.744 18.2085 154.768 17.2322L138.858 1.32233C137.882 0.34602 136.299 0.34602 135.322 1.32233C134.346 2.29864 134.346 3.88155 135.322 4.85786L149.464 19L135.322 33.1421C134.346 34.1184 134.346 35.7014 135.322 36.6777C136.299 37.654 137.882 37.654 138.858 36.6777L154.768 20.7678ZM3 21.5H153V16.5H3V21.5Z" fill="#1A80E6"/>
</svg>
