<svg width="27" height="29" viewBox="0 0 27 29" fill="none" xmlns="http://www.w3.org/2000/svg">
<path d="M15 28.25H12C11.1716 28.25 10.5 27.5784 10.5 26.75L10.5 24.75L10.5 22.75L9.25001 20.5L9.03734 20.1172C8.34674 18.8741 7.74932 17.5815 7.25001 16.25L7.15956 16.0088C6.72634 14.8535 6.57996 13.6104 6.733 12.3861L6.78964 11.9329C6.9272 10.8325 7.36672 9.79161 8.05951 8.92562C8.67696 8.15381 9.47533 7.54629 10.3838 7.15694L10.7203 7.01272C11.8858 6.51325 13.1631 6.33289 14.4213 6.49016L14.5333 6.50416C15.8174 6.66468 17.0285 7.19038 18.0226 8.01884L18.2691 8.22427C19.0738 8.89479 19.6755 9.77638 20.0067 10.77C20.3295 11.7384 20.383 12.7764 20.1616 13.7729L20 14.5C19.8337 15.2484 19.5994 15.9801 19.2999 16.6859L18 19.75L16.5 22.75V24.75V26.75C16.5 27.5784 15.8284 28.25 15 28.25Z" fill="#F7FAFC"/>
<path d="M10.5 22.75H16.5M10.5 22.75L10.5 24.75L10.5 26.75V26.75C10.5 27.5784 11.1716 28.25 12 28.25H15C15.8284 28.25 16.5 27.5784 16.5 26.75V26.75M10.5 22.75L9.25001 20.5L9.03734 20.1172C8.34674 18.8741 7.74932 17.5815 7.25001 16.25V16.25L7.15956 16.0088C6.72634 14.8535 6.57996 13.6104 6.733 12.3861L6.78964 11.9329C6.9272 10.8325 7.36672 9.79161 8.05951 8.92562V8.92562C8.67696 8.15381 9.47533 7.54629 10.3838 7.15694L10.7203 7.01272C11.8858 6.51325 13.1631 6.33289 14.4213 6.49016L14.5333 6.50416C15.8174 6.66468 17.0285 7.19038 18.0226 8.01884L18.2691 8.22427C19.0738 8.89479 19.6755 9.77638 20.0067 10.77V10.77C20.3295 11.7384 20.383 12.7764 20.1616 13.7729L20 14.5V14.5C19.8337 15.2484 19.5994 15.9801 19.2999 16.6859L18 19.75L16.5 22.75M16.5 22.75V24.75M16.5 24.75H13.5M16.5 24.75V26.75M16.5 26.75H13.5M23 12.25H26M1 12.25H4M13.5 3.25V0.75M20 6.25L22 4.25M7.00001 6.25L5 4.25M12 8.75L11.7301 8.83996C10.9329 9.10572 10.2469 9.62964 9.78074 10.3289V10.3289C9.59441 10.6084 9.44618 10.9115 9.33996 11.2301L9.27394 11.4282C9.09251 11.9725 9.00001 12.5425 9.00001 13.1162V14.25" stroke="black" stroke-linecap="round" stroke-linejoin="round"/>
</svg>
