<svg width="48" height="48" viewBox="0 0 48 48" fill="none" xmlns="http://www.w3.org/2000/svg">
<rect width="48" height="48" rx="8" fill="#E8EDF2"/>
<path d="M33.3596 24.5699L23.3556 34.357C21.5902 35.5084 18.0594 34.9327 17.4709 34.0416C16.294 33.2055 14.5283 30.3272 15.1169 28.6001C15.1169 28.6001 15.1169 27.4485 16.8824 25.7214C20.4132 21.6914 28.6518 14.2071 28.6518 14.2071C30.4172 13.6315 32.1826 14.3982 32.7509 14.7829C33.9481 15.9344 34.5365 18.2372 33.3596 19.3886L22.1787 30.3271C21.0017 31.4785 19.8248 31.4785 19.2363 30.9028C19.2363 30.9028 18.6478 30.9028 18.6478 29.1757C22.1787 25.1457 28.6518 19.3886 28.6518 19.3886" stroke="black" stroke-width="2" stroke-linecap="round" stroke-linejoin="round"/>
</svg>
